<mxfile host="65bd71144e">
    <diagram id="tr8WCDj-hul7nBdrf4UF" name="Страница 1">
        <mxGraphModel dx="1074" dy="782" grid="1" gridSize="10" guides="1" tooltips="1" connect="0" arrows="1" fold="1" page="1" pageScale="1" pageWidth="827" pageHeight="1169" math="0" shadow="0">
            <root>
                <mxCell id="0"/>
                <mxCell id="1" parent="0"/>
                <mxCell id="2" style="edgeStyle=orthogonalEdgeStyle;rounded=0;orthogonalLoop=1;jettySize=auto;html=1;" parent="1" source="3" edge="1">
                    <mxGeometry relative="1" as="geometry">
                        <mxPoint x="375" y="150" as="targetPoint"/>
                    </mxGeometry>
                </mxCell>
                <mxCell id="3" value="Запуск" style="rounded=1;whiteSpace=wrap;html=1;arcSize=50;" parent="1" vertex="1">
                    <mxGeometry x="305" y="20" width="140" height="40" as="geometry"/>
                </mxCell>
                <mxCell id="5" value="#include &amp;lt;iostream&amp;gt;&lt;br&gt;#include &amp;lt;complex&amp;gt;&lt;br&gt;using namespace std;&lt;br&gt;setlocale(LC_ALL, &quot;Russian&quot;);" style="strokeWidth=2;html=1;shape=mxgraph.flowchart.annotation_2;align=left;labelPosition=right;pointerEvents=1;" parent="1" vertex="1">
                    <mxGeometry x="458.01" y="40" width="20" height="80" as="geometry"/>
                </mxCell>
                <mxCell id="6" value="" style="endArrow=none;dashed=1;html=1;entryX=0;entryY=0.5;entryDx=0;entryDy=0;entryPerimeter=0;" parent="1" target="5" edge="1">
                    <mxGeometry width="50" height="50" relative="1" as="geometry">
                        <mxPoint x="375" y="80" as="sourcePoint"/>
                        <mxPoint x="465" y="70" as="targetPoint"/>
                    </mxGeometry>
                </mxCell>
                <mxCell id="7" value="Конец" style="rounded=1;whiteSpace=wrap;html=1;arcSize=50;" parent="1" vertex="1">
                    <mxGeometry x="305" y="520" width="140" height="40" as="geometry"/>
                </mxCell>
                <mxCell id="10" value="return 0;&lt;br&gt;}" style="strokeWidth=2;html=1;shape=mxgraph.flowchart.annotation_2;align=left;labelPosition=right;pointerEvents=1;" parent="1" vertex="1">
                    <mxGeometry x="476.75" y="470" width="20" height="60" as="geometry"/>
                </mxCell>
                <mxCell id="11" value="" style="endArrow=none;dashed=1;html=1;entryX=0;entryY=0.5;entryDx=0;entryDy=0;entryPerimeter=0;" parent="1" edge="1">
                    <mxGeometry width="50" height="50" relative="1" as="geometry">
                        <mxPoint x="376.75" y="500" as="sourcePoint"/>
                        <mxPoint x="476.75" y="500" as="targetPoint"/>
                    </mxGeometry>
                </mxCell>
                <mxCell id="356" style="edgeStyle=none;html=1;rounded=0;" parent="1" source="354" edge="1">
                    <mxGeometry relative="1" as="geometry">
                        <mxPoint x="375.004090909091" y="270" as="targetPoint"/>
                    </mxGeometry>
                </mxCell>
                <mxCell id="354" value="int main() {" style="ellipse;whiteSpace=wrap;html=1;" parent="1" vertex="1">
                    <mxGeometry x="315" y="150" width="120" height="60" as="geometry"/>
                </mxCell>
                <mxCell id="358" value="" style="edgeStyle=orthogonalEdgeStyle;rounded=0;html=1;" parent="1" target="357" edge="1">
                    <mxGeometry relative="1" as="geometry">
                        <mxPoint x="375.0999999999999" y="310" as="sourcePoint"/>
                    </mxGeometry>
                </mxCell>
                <mxCell id="367" style="edgeStyle=orthogonalEdgeStyle;html=1;" edge="1" parent="1" source="357" target="366">
                    <mxGeometry relative="1" as="geometry"/>
                </mxCell>
                <mxCell id="357" value="&lt;div&gt;&lt;span&gt;&#9;&lt;/span&gt;cin &amp;gt;&amp;gt; n;&lt;/div&gt;" style="shape=parallelogram;perimeter=parallelogramPerimeter;whiteSpace=wrap;html=1;fixedSize=1;" parent="1" vertex="1">
                    <mxGeometry x="275" y="350" width="200" height="40" as="geometry"/>
                </mxCell>
                <mxCell id="370" style="edgeStyle=orthogonalEdgeStyle;rounded=0;html=1;" edge="1" parent="1" source="359" target="369">
                    <mxGeometry relative="1" as="geometry"/>
                </mxCell>
                <mxCell id="359" value="&lt;div&gt;void bashnya(int n, int st, int fnl, int tmp)&lt;/div&gt;" style="ellipse;whiteSpace=wrap;html=1;" parent="1" vertex="1">
                    <mxGeometry x="835" y="150" width="150" height="70" as="geometry"/>
                </mxCell>
                <mxCell id="365" value="int n;" style="rounded=0;whiteSpace=wrap;html=1;" vertex="1" parent="1">
                    <mxGeometry x="321.63" y="270" width="106.75" height="40" as="geometry"/>
                </mxCell>
                <mxCell id="368" style="edgeStyle=orthogonalEdgeStyle;html=1;rounded=0;" edge="1" parent="1" source="366" target="7">
                    <mxGeometry relative="1" as="geometry"/>
                </mxCell>
                <mxCell id="366" value="bashnya(n, 1, 2, 3);" style="shape=process;whiteSpace=wrap;html=1;backgroundOutline=1;" vertex="1" parent="1">
                    <mxGeometry x="300.01" y="420" width="150" height="50" as="geometry"/>
                </mxCell>
                <mxCell id="373" value="1" style="edgeStyle=orthogonalEdgeStyle;rounded=0;html=1;" edge="1" parent="1" source="369" target="372">
                    <mxGeometry relative="1" as="geometry"/>
                </mxCell>
                <mxCell id="379" style="edgeStyle=orthogonalEdgeStyle;rounded=0;html=1;" edge="1" parent="1" source="369">
                    <mxGeometry relative="1" as="geometry">
                        <mxPoint x="900" y="580" as="targetPoint"/>
                        <Array as="points">
                            <mxPoint x="1020" y="280"/>
                            <mxPoint x="1020" y="580"/>
                        </Array>
                    </mxGeometry>
                </mxCell>
                <mxCell id="369" value="if (n &amp;gt; 0)" style="rhombus;whiteSpace=wrap;html=1;" vertex="1" parent="1">
                    <mxGeometry x="855" y="250" width="110" height="60" as="geometry"/>
                </mxCell>
                <mxCell id="375" style="edgeStyle=orthogonalEdgeStyle;rounded=0;html=1;" edge="1" parent="1" source="372" target="374">
                    <mxGeometry relative="1" as="geometry"/>
                </mxCell>
                <mxCell id="372" value="bashnya(n - 1, st, tmp, fnl);" style="shape=process;whiteSpace=wrap;html=1;backgroundOutline=1;" vertex="1" parent="1">
                    <mxGeometry x="720" y="320" width="120" height="60" as="geometry"/>
                </mxCell>
                <mxCell id="377" style="edgeStyle=orthogonalEdgeStyle;rounded=0;html=1;" edge="1" parent="1" source="374" target="376">
                    <mxGeometry relative="1" as="geometry"/>
                </mxCell>
                <mxCell id="374" value="&lt;div&gt;&lt;span&gt;&#9;&lt;/span&gt;cout &amp;lt;&amp;lt; st &amp;lt;&amp;lt; &quot; =&amp;gt; &quot; &amp;lt;&amp;lt; fnl &amp;lt;&amp;lt; endl;&lt;/div&gt;" style="shape=parallelogram;perimeter=parallelogramPerimeter;whiteSpace=wrap;html=1;fixedSize=1;" vertex="1" parent="1">
                    <mxGeometry x="670" y="410" width="220" height="40" as="geometry"/>
                </mxCell>
                <mxCell id="378" style="edgeStyle=orthogonalEdgeStyle;rounded=0;html=1;" edge="1" parent="1" source="376">
                    <mxGeometry relative="1" as="geometry">
                        <mxPoint x="900" y="580" as="targetPoint"/>
                        <Array as="points">
                            <mxPoint x="780" y="580"/>
                        </Array>
                    </mxGeometry>
                </mxCell>
                <mxCell id="376" value="bashnya(n - 1, tmp, fnl, st);" style="shape=process;whiteSpace=wrap;html=1;backgroundOutline=1;" vertex="1" parent="1">
                    <mxGeometry x="720" y="480" width="120" height="60" as="geometry"/>
                </mxCell>
                <mxCell id="380" value="return 0;" style="ellipse;whiteSpace=wrap;html=1;" vertex="1" parent="1">
                    <mxGeometry x="840" y="610" width="120" height="60" as="geometry"/>
                </mxCell>
                <mxCell id="381" value="" style="endArrow=classic;html=1;rounded=0;" edge="1" parent="1" target="380">
                    <mxGeometry width="50" height="50" relative="1" as="geometry">
                        <mxPoint x="900" y="580" as="sourcePoint"/>
                        <mxPoint x="830" y="290" as="targetPoint"/>
                    </mxGeometry>
                </mxCell>
            </root>
        </mxGraphModel>
    </diagram>
</mxfile>